# xmcd
# 
# Track frame offsets:
#     150
#     17695
#     35875
#     51107
#     68702
#     88222
#     105095
#     123812
#     141575
#     154737
#     170145
#     192720
# 
# Disc length: 4440
# 
# Revision: 16
# Processed by: cddbd v1.5.2PL0 Copyright (c) Steve Scherf et al.
# Submitted via: fre:ac v1.1beta1pre4
# 
DISCID=aa11560c
DTITLE=Alain Souchon - La Vie Théodore
DYEAR=2005
DGENRE=Chanson
TTITLE0=Putain Ca Penche
TTITLE1=J'aimais Mieux Quand C'était Toi
TTITLE2=Bonjour Tristesse
TTITLE3=La Vie Théodore
TTITLE4=En Collant L'oreille Sur L'appareil
TTITLE5=A Cause D'elle
TTITLE6=Et Si En Plus Y'a Personne
TTITLE7=Le Mystère
TTITLE8=Le Marin
TTITLE9=L'ile Du Dédain
TTITLE10=Lisa
TTITLE11=DATA
EXTD=YEAR: 2005
EXTT0=
EXTT1=
EXTT2=
EXTT3=
EXTT4=
EXTT5=
EXTT6=
EXTT7=
EXTT8=
EXTT9=
EXTT10=
EXTT11=
PLAYORDER=
